/* XPM */
static char * close_active_xpm[] = {
"18 24 32 1",
" 	c None",
".	c #24282B",
"+	c #24282A",
"@	c #23272A",
"#	c #232629",
"$	c #222629",
"%	c #222628",
"&	c #222528",
"*	c #212528",
"=	c #212427",
"-	c #202427",
";	c #202426",
">	c #000000",
",	c #1D1F21",
"'	c #1D1F20",
")	c #1C1E20",
"!	c #1C1D1F",
"~	c #1B1D1F",
"{	c #1B1C1E",
"]	c #1A1C1E",
"^	c #121313",
"/	c #1C1E1F",
"(	c #1A1C1D",
"_	c #111213",
":	c #C5C8C6",
"<	c #1A1B1D",
"[	c #191B1D",
"}	c #1B1D1E",
"|	c #191B1C",
"1	c #141516",
"2	c #131415",
"3	c #121314",
"                  ",
"                  ",
"                  ",
"                  ",
"                  ",
"                  ",
"  ...+@@@#$%&*=-;>",
"  .,,'))))!~~{]]^>",
"  .,,')))/~~~{](_>",
"  .,,'::)/~~::]<_>",
"  .,,')::!~::]([_>",
"  .,,'))::::{]<[_>",
"  .,,')))::}]]<[_>",
"  .,,)))::::]][|_>",
"  .,,))::~~::([|_>",
"  .,,)::/~~{::[|_>",
"  .,,)))/~~{]([|_>",
"  .,,)))/~~}]][|_>",
"  .11122222333^__>",
"  >>>>>>>>>>>>>>>>",
"                  ",
"                  ",
"                  ",
"                  "};
